<svg width="1026" height="236" viewBox="0 0 1026 236" fill="none" xmlns="http://www.w3.org/2000/svg">
<path d="M1 235C5.99834 197.245 36.2383 110.654 117.211 66.3362C218.428 10.9387 286.322 117.203 254.666 176.102C223.01 235 350.884 157.361 462.93 105.876C574.976 54.3918 710.764 45.9483 691.187 120.704C675.526 180.509 893.203 78.4866 1004 20" stroke="white" stroke-width="2" stroke-dasharray="4 8 12 16"/>
<path fill-rule="evenodd" clip-rule="evenodd" d="M1024.71 1.29289C1025.01 1.59173 1025.08 2.04615 1024.9 2.42809L1015.9 21.4281C1015.72 21.8098 1015.32 22.0368 1014.9 21.9951C1014.48 21.9535 1014.13 21.6523 1014.03 21.2425L1012.18 13.8246L1004.76 11.9701C1004.35 11.8677 1004.05 11.5189 1004 11.0985C1003.96 10.6782 1004.19 10.2771 1004.57 10.0963L1023.57 1.09626C1023.95 0.915347 1024.41 0.99406 1024.71 1.29289ZM1007.95 10.7076L1013.24 12.0299C1013.6 12.1194 1013.88 12.3992 1013.97 12.7575L1015.29 18.0466L1021.9 4.10238L1007.95 10.7076Z" fill="white"/>
</svg>
