<svg width="18" height="18" viewBox="0 0 18 18" fill="none" xmlns="http://www.w3.org/2000/svg">
<path fill-rule="evenodd" clip-rule="evenodd" d="M3.75 3C3.55109 3 3.36032 3.07902 3.21967 3.21967C3.07902 3.36032 3 3.55109 3 3.75V13.9393L4.71967 12.2197C4.86032 12.079 5.05109 12 5.25 12H14.25C14.4489 12 14.6397 11.921 14.7803 11.7803C14.921 11.6397 15 11.4489 15 11.25V3.75C15 3.55109 14.921 3.36032 14.7803 3.21967C14.6397 3.07902 14.4489 3 14.25 3H3.75ZM2.15901 2.15901C2.58097 1.73705 3.15326 1.5 3.75 1.5H14.25C14.8467 1.5 15.419 1.73705 15.841 2.15901C16.2629 2.58097 16.5 3.15326 16.5 3.75V11.25C16.5 11.8467 16.2629 12.419 15.841 12.841C15.419 13.2629 14.8467 13.5 14.25 13.5H5.56066L2.78033 16.2803C2.56583 16.4948 2.24324 16.559 1.96299 16.4429C1.68273 16.3268 1.5 16.0533 1.5 15.75V3.75C1.5 3.15326 1.73705 2.58097 2.15901 2.15901Z" fill="black"/>
</svg>
