<svg width="18" height="18" viewBox="0 0 18 18" fill="none" xmlns="http://www.w3.org/2000/svg">
<path fill-rule="evenodd" clip-rule="evenodd" d="M8.53954 0.907986C8.81038 0.697338 9.18962 0.697338 9.46046 0.907986L16.2105 6.15799C16.3931 6.30008 16.5 6.51856 16.5 6.75V15C16.5 15.5967 16.2629 16.169 15.841 16.591C15.419 17.0129 14.8467 17.25 14.25 17.25H3.75C3.15326 17.25 2.58097 17.0129 2.15901 16.591C1.73705 16.169 1.5 15.5967 1.5 15V6.75C1.5 6.51856 1.60685 6.30008 1.78954 6.15799L8.53954 0.907986ZM3 7.11681V15C3 15.1989 3.07902 15.3897 3.21967 15.5303C3.36032 15.671 3.55109 15.75 3.75 15.75H14.25C14.4489 15.75 14.6397 15.671 14.7803 15.5303C14.921 15.3897 15 15.1989 15 15V7.11681L9 2.45015L3 7.11681Z" fill="black"/>
<path fill-rule="evenodd" clip-rule="evenodd" d="M6 9C6 8.58579 6.33579 8.25 6.75 8.25H11.25C11.6642 8.25 12 8.58579 12 9V16.5C12 16.9142 11.6642 17.25 11.25 17.25C10.8358 17.25 10.5 16.9142 10.5 16.5V9.75H7.5V16.5C7.5 16.9142 7.16421 17.25 6.75 17.25C6.33579 17.25 6 16.9142 6 16.5V9Z" fill="black"/>
</svg>
