<svg width="20" height="20" viewBox="0 0 20 20" fill="none" xmlns="http://www.w3.org/2000/svg">
<path fill-rule="evenodd" clip-rule="evenodd" d="M18.9226 1.07741C19.1716 1.32644 19.2372 1.70513 19.0864 2.02341L11.5864 17.8567C11.4358 18.1748 11.1015 18.364 10.7512 18.3293C10.4009 18.2946 10.1102 18.0436 10.0249 17.7021L8.47946 11.5205L2.29787 9.97512C1.9564 9.88976 1.70539 9.59905 1.6707 9.24879C1.63602 8.89852 1.82515 8.56423 2.14324 8.41356L17.9766 0.913555C18.2949 0.762793 18.6735 0.828387 18.9226 1.07741ZM4.9611 8.92297L9.36876 10.0249C9.66733 10.0995 9.90046 10.3327 9.9751 10.6312L11.077 15.0389L16.5813 3.41865L4.9611 8.92297Z" fill="black"/>
</svg>
