<svg width="18" height="18" viewBox="0 0 18 18" fill="none" xmlns="http://www.w3.org/2000/svg">
<path fill-rule="evenodd" clip-rule="evenodd" d="M7.87661 1.05204C8.21826 0.855165 8.60566 0.751526 9 0.751526C9.39435 0.751526 9.78177 0.855173 10.1234 1.05207C10.124 1.05237 10.1245 1.05267 10.125 1.05297L15.375 4.05296C15.7167 4.25025 16.0005 4.53392 16.198 4.87553C16.3954 5.21713 16.4996 5.60465 16.5 5.99922V12.0008C16.4996 12.3953 16.3954 12.7828 16.198 13.1244C16.0005 13.4661 15.7167 13.7497 15.375 13.947L15.3721 13.9487L10.125 16.947C10.1246 16.9473 10.1241 16.9475 10.1237 16.9478C9.78194 17.1448 9.39444 17.2485 9 17.2485C8.60558 17.2485 8.21809 17.1448 7.87639 16.9478C7.87592 16.9475 7.87546 16.9473 7.875 16.947L2.6279 13.9487L2.625 13.947C2.2833 13.7497 1.99948 13.4661 1.80202 13.1244C1.60456 12.7828 1.5004 12.3953 1.5 12.0008V5.99922C1.5004 5.60465 1.60456 5.21713 1.80202 4.87553C1.99948 4.53392 2.2833 4.25025 2.625 4.05297L2.62789 4.0513L7.87661 1.05204ZM9 2.25153C8.86835 2.25153 8.73901 2.28618 8.625 2.35201L8.62211 2.35368L3.375 5.35201C3.37461 5.35223 3.37421 5.35246 3.37382 5.35269C3.26044 5.41842 3.16626 5.51272 3.10067 5.62619C3.03491 5.73997 3.00019 5.86902 3 6.00043V11.9995C3.00019 12.131 3.03491 12.26 3.10067 12.3738C3.16626 12.4873 3.26044 12.5816 3.37382 12.6473C3.37421 12.6475 3.37461 12.6477 3.375 12.648L8.625 15.648C8.73901 15.7138 8.86835 15.7485 9 15.7485C9.13165 15.7485 9.26098 15.7138 9.375 15.648L9.3779 15.6463L14.625 12.648C14.6254 12.6477 14.6258 12.6475 14.6262 12.6473C14.7396 12.5816 14.8337 12.4873 14.8993 12.3738C14.9651 12.2599 14.9999 12.1307 15 11.9992V6.00076C14.9999 5.86923 14.9651 5.74006 14.8993 5.62619C14.8337 5.51272 14.7396 5.41843 14.6262 5.3527C14.6258 5.35247 14.6254 5.35224 14.625 5.35201L9.375 2.35201C9.26098 2.28619 9.13165 2.25153 9 2.25153Z" fill="black"/>
<path fill-rule="evenodd" clip-rule="evenodd" d="M4.9756 2.7823C5.18283 2.42364 5.64156 2.30088 6.00021 2.50811L9 4.24132L11.9998 2.50811C12.3584 2.30088 12.8172 2.42364 13.0244 2.7823C13.2316 3.14095 13.1089 3.59968 12.7502 3.8069L9.37521 5.7569C9.14305 5.89104 8.85695 5.89104 8.62479 5.7569L5.24979 3.8069C4.89114 3.59968 4.76838 3.14095 4.9756 2.7823Z" fill="black"/>
<path fill-rule="evenodd" clip-rule="evenodd" d="M1.6006 8.62479C1.80783 8.26614 2.26656 8.14338 2.62521 8.3506L6.00021 10.3006C6.23214 10.4346 6.375 10.6821 6.375 10.95V14.8425C6.375 15.2567 6.03922 15.5925 5.625 15.5925C5.21079 15.5925 4.875 15.2567 4.875 14.8425V11.3829L1.87479 9.6494C1.51614 9.44218 1.39338 8.98345 1.6006 8.62479Z" fill="black"/>
<path fill-rule="evenodd" clip-rule="evenodd" d="M16.3994 8.62479C16.6066 8.98345 16.4839 9.44218 16.1252 9.6494L13.125 11.3829V14.8425C13.125 15.2567 12.7892 15.5925 12.375 15.5925C11.9608 15.5925 11.625 15.2567 11.625 14.8425V10.95C11.625 10.6821 11.7679 10.4346 11.9998 10.3006L15.3748 8.3506C15.7334 8.14338 16.1922 8.26614 16.3994 8.62479Z" fill="black"/>
<path fill-rule="evenodd" clip-rule="evenodd" d="M1.80331 4.84446C2.01072 4.48591 2.46951 4.36339 2.82806 4.5708L9.00002 8.14106L15.172 4.5708C15.5305 4.36339 15.9893 4.48591 16.1967 4.84446C16.4041 5.20301 16.2816 5.6618 15.9231 5.86921L9.37556 9.65671C9.14323 9.7911 8.8568 9.7911 8.62447 9.65671L2.07697 5.86921C1.71843 5.6618 1.59591 5.20301 1.80331 4.84446Z" fill="black"/>
<path fill-rule="evenodd" clip-rule="evenodd" d="M9 8.25C9.41421 8.25 9.75 8.58579 9.75 9V16.56C9.75 16.9742 9.41421 17.31 9 17.31C8.58579 17.31 8.25 16.9742 8.25 16.56V9C8.25 8.58579 8.58579 8.25 9 8.25Z" fill="black"/>
</svg>
